<svg xmlns="http://www.w3.org/2000/svg" width="2908" height="2986" viewBox="0 0 2908 2986" version="1.1"><path d="M 1600.843 132.975 C 1586.869 137.196, 1581.264 153.377, 1589.644 165.301 C 1594.879 172.750, 1607.084 176.684, 1616.807 174.056 C 1621.870 172.688, 1628.744 166.843, 1630.653 162.282 C 1632.669 157.466, 1632.357 148.620, 1630.009 144.018 C 1625.319 134.824, 1611.741 129.682, 1600.843 132.975 M 1507.653 149.168 C 1507.294 155.848, 1506.955 166.306, 1506.901 172.407 C 1506.847 178.508, 1506.509 185.866, 1506.151 188.758 L 1505.500 194.016 1501.500 189.850 C 1492.378 180.350, 1481.374 175.985, 1466.645 176.024 C 1449.805 176.069, 1439.526 180.226, 1428.380 191.497 C 1420.181 199.787, 1415.172 208.930, 1411.944 221.500 C 1409.113 232.522, 1409.080 251.391, 1411.874 262.136 C 1419.061 289.773, 1440.008 307, 1466.426 307 C 1478.473 307, 1490.893 302.159, 1498.588 294.465 L 1503 290.053 1503 297.967 C 1503 302.320, 1503.338 306.089, 1503.750 306.341 C 1504.162 306.593, 1513.050 306.953, 1523.500 307.140 L 1542.500 307.479 1545.127 222.990 C 1546.571 176.520, 1547.696 138.450, 1547.627 138.389 C 1547.557 138.328, 1538.681 137.995, 1527.903 137.649 L 1508.306 137.021 1507.653 149.168 M 1378 178.603 C 1368.215 181.221, 1358.556 188.405, 1351.391 198.394 L 1349.315 201.287 1348.623 191.443 C 1348.243 186.028, 1347.834 181.525, 1347.716 181.437 C 1347.467 181.251, 1308.565 184.137, 1308.373 184.355 C 1308.116 184.648, 1317.960 311.293, 1318.263 311.596 C 1318.642 311.976, 1355.066 309.124, 1356.529 308.600 C 1357.217 308.354, 1356.820 298.670, 1355.329 279.366 C 1352.007 236.358, 1352.145 234.592, 1359.390 227.347 C 1364.273 222.464, 1370.236 220.446, 1382.836 219.411 L 1391.171 218.727 1390.649 215.613 C 1390.361 213.901, 1389.575 204.512, 1388.902 194.750 C 1387.508 174.543, 1388.375 175.827, 1378 178.603 M 1584.696 188.750 C 1583.012 200.037, 1569.838 311.172, 1570.148 311.481 C 1570.944 312.278, 1608.067 316.267, 1608.709 315.625 C 1610.013 314.320, 1624.664 189.805, 1623.554 189.450 C 1622.323 189.057, 1588.657 185, 1586.628 185 C 1585.808 185, 1585.030 186.510, 1584.696 188.750 M 1251 191.607 C 1244.125 192.914, 1236.211 194.453, 1233.414 195.028 L 1228.327 196.074 1229.627 202.787 C 1231.474 212.328, 1231.466 212.343, 1226.534 208.578 C 1208.717 194.978, 1179.447 198.307, 1161.973 215.921 C 1150.644 227.342, 1145 241.824, 1145 259.476 C 1145 286.698, 1156.627 311.046, 1175.428 323.198 C 1198.041 337.814, 1231.483 331.871, 1245 310.835 L 1248.500 305.388 1250.047 313.444 C 1250.898 317.875, 1252.023 321.446, 1252.547 321.379 C 1253.071 321.313, 1261.713 319.769, 1271.750 317.948 C 1286.222 315.323, 1290.004 314.313, 1290.021 313.069 C 1290.032 312.206, 1284.973 283.938, 1278.778 250.250 C 1268.257 193.034, 1267.383 189.008, 1265.508 189.115 C 1264.403 189.179, 1257.875 190.300, 1251 191.607 M 1689.916 205.522 C 1661.285 212.474, 1641.995 238.913, 1641.779 271.500 C 1641.738 277.808, 1642.329 283.873, 1643.381 287.928 C 1649.130 310.077, 1665.875 326.220, 1690.107 332.974 C 1726.366 343.081, 1759.978 325.749, 1771.030 291.247 C 1783.783 251.437, 1763.946 215.628, 1723.810 206.006 C 1714.046 203.665, 1698.479 203.443, 1689.916 205.522 M 1035.663 210.069 C 1020.152 212.204, 1000.665 220.964, 989.430 230.853 C 977.908 240.995, 969.804 254.446, 965.900 269.908 C 964.096 277.054, 963.851 280.283, 964.266 291.408 C 964.549 299.007, 965.446 306.974, 966.403 310.398 C 977.948 351.696, 1008.567 375.757, 1046.954 373.698 C 1070.313 372.445, 1088.473 364.499, 1104.537 348.500 C 1111.897 341.171, 1114.346 337.922, 1117.729 331 C 1122.792 320.642, 1124.974 312.401, 1125.725 300.807 C 1126.188 293.660, 1126.033 292, 1124.899 292 C 1124.130 292, 1114.682 294.940, 1103.902 298.533 L 1084.304 305.065 1083.082 310.524 C 1080.642 321.429, 1071.278 331.063, 1059.201 335.093 C 1050.568 337.975, 1037.640 337.541, 1030.714 334.138 C 1014.336 326.092, 1003.224 304.898, 1004.187 283.545 C 1004.881 268.160, 1011.321 257.906, 1024.304 251.513 C 1039.004 244.274, 1054.040 245.431, 1064.988 254.644 L 1068.243 257.383 1088.622 250.617 C 1099.830 246.896, 1109 243.547, 1108.999 243.176 C 1108.998 241.458, 1099.448 230.614, 1093.790 225.904 C 1086.782 220.071, 1074.544 213.831, 1065.648 211.554 C 1057.933 209.580, 1044.175 208.898, 1035.663 210.069 M 1468 212.054 C 1459.864 215.459, 1454.296 221.898, 1451.582 231.036 C 1445.298 252.195, 1457.743 272.440, 1477 272.386 C 1491.221 272.346, 1500.833 263.878, 1503.983 248.617 C 1506.929 234.340, 1500.747 219.110, 1489.644 213.295 C 1485.891 211.329, 1471.678 210.514, 1468 212.054 M 1808.782 293.750 C 1808.937 329.362, 1809.162 359.788, 1809.282 361.362 C 1809.495 364.162, 1809.992 364.396, 1832 372.051 L 1854.500 379.877 1856.615 377.688 C 1857.779 376.485, 1875.526 354.575, 1896.054 329 C 1916.581 303.425, 1934.871 280.648, 1936.698 278.385 L 1940.020 274.269 1926.260 269.483 C 1918.692 266.850, 1909.728 263.675, 1906.340 262.427 L 1900.181 260.158 1872.840 297.550 L 1845.500 334.943 1845.250 330.722 C 1845.113 328.400, 1845.822 307.825, 1846.826 285 C 1847.830 262.175, 1848.317 243.110, 1847.908 242.632 C 1847.095 241.684, 1811.490 229, 1809.640 229 C 1808.795 229, 1808.573 245.779, 1808.782 293.750 M 1203.316 234.275 C 1196.676 236.829, 1191.342 241.601, 1188.379 247.639 C 1185.892 252.707, 1185.517 254.583, 1185.611 261.500 C 1185.760 272.431, 1188.645 279.850, 1195.391 286.650 C 1212.729 304.128, 1240.360 291.749, 1240.367 266.500 C 1240.371 252.957, 1235.201 242.492, 1225.563 236.533 C 1221.515 234.030, 1219.499 233.484, 1213.597 233.287 C 1209.694 233.157, 1205.067 233.602, 1203.316 234.275 M 1698.278 241.549 C 1688.324 246.509, 1682.039 259.096, 1682.012 274.124 C 1681.991 285.674, 1686.350 293.477, 1695.500 298.271 C 1701.171 301.243, 1711.981 301.256, 1717.568 298.298 C 1722.038 295.932, 1728.013 289.809, 1730.449 285.099 C 1734.911 276.470, 1735.962 261.619, 1732.668 253.756 C 1727.303 240.954, 1711.050 235.184, 1698.278 241.549 M 1978 303.567 C 1959.573 307.557, 1943.238 321.711, 1933.068 342.500 C 1927.518 353.843, 1925 364.294, 1925 375.978 C 1925 392.668, 1929.786 404.884, 1940.485 415.500 C 1955.513 430.413, 1976.947 435.095, 1995.332 427.482 C 1996.810 426.870, 1996.460 428.123, 1993.518 433.964 C 1991.513 437.946, 1990.013 441.333, 1990.186 441.490 C 1991.096 442.315, 2025.258 459.071, 2025.497 458.809 C 2026.230 458.007, 2082 345.911, 2082 345.240 C 2082 344.819, 2074.121 340.542, 2064.492 335.736 L 2046.984 326.999 2043.285 334.474 L 2039.587 341.948 2038.256 336.748 C 2034.226 321, 2018.473 307.488, 1999.500 303.504 C 1990.986 301.717, 1986.482 301.730, 1978 303.567 M 822 343.346 C 790.095 352.872, 769.857 381.168, 773.942 410.537 C 776.214 426.875, 783.528 441.526, 795.393 453.507 C 810.622 468.885, 830.179 474.897, 850.303 470.387 C 876.045 464.618, 896.327 444.839, 901.489 420.471 C 903.392 411.485, 903.374 405.729, 901.411 396.208 C 897.251 376.028, 883.192 356.591, 866.379 347.777 C 852.680 340.595, 836.595 338.989, 822 343.346 M 1988.939 342.317 C 1977.874 345.418, 1968.228 357.347, 1966.169 370.477 C 1963.424 387.983, 1975.033 402.319, 1992.009 402.386 C 2003.735 402.432, 2013.029 395.573, 2019.248 382.284 C 2021.771 376.893, 2022.327 374.428, 2022.338 368.604 C 2022.346 364.361, 2021.727 360.061, 2020.801 357.927 C 2015.615 345.978, 2001.154 338.893, 1988.939 342.317 M 824.500 362.356 C 808.677 367.555, 797.381 379.872, 794.996 394.527 C 791.837 413.934, 806.182 440.104, 824.747 448.804 C 829.737 451.142, 831.767 451.500, 840.052 451.500 C 849.044 451.500, 850.040 451.284, 857.061 447.815 C 875.037 438.930, 884.092 422.333, 880.992 403.950 C 878.345 388.262, 866.230 371.195, 853.172 364.762 C 847.370 361.903, 845.438 361.472, 837.526 361.271 C 832.137 361.134, 826.888 361.572, 824.500 362.356 M 2116.205 385.839 C 2109.807 388.116, 2104.761 392.026, 2099.754 398.590 C 2094.636 405.298, 2092.691 411.572, 2093.170 419.834 C 2093.815 430.980, 2098.259 438.715, 2116.122 459.776 C 2120.314 464.719, 2124.547 470.865, 2125.528 473.434 C 2127.270 477.996, 2127.265 478.168, 2125.304 480.803 C 2120.922 486.689, 2113.126 485.922, 2105.455 478.852 C 2099.677 473.526, 2097.361 467.558, 2098.828 461.778 C 2099.424 459.431, 2099.594 457.226, 2099.206 456.878 C 2095 453.105, 2068.710 435.061, 2068.031 435.481 C 2067.535 435.787, 2066.122 438.617, 2064.890 441.769 C 2062.009 449.139, 2061.699 462.868, 2064.228 471 C 2070.542 491.302, 2093.473 511.732, 2115.847 516.989 C 2123.090 518.691, 2135.236 517.818, 2141.259 515.162 C 2147.804 512.276, 2155.069 505.191, 2158.571 498.281 C 2161.166 493.159, 2161.500 491.472, 2161.500 483.477 C 2161.500 470.297, 2158.426 464.458, 2139.830 442.310 C 2135.586 437.255, 2131.413 431.765, 2130.557 430.110 C 2127.264 423.743, 2129.482 417.563, 2135.462 416.441 C 2140.007 415.588, 2148.284 420.049, 2152.272 425.500 C 2154.982 429.205, 2155.164 429.998, 2154.731 436.266 L 2154.265 443.032 2168.189 453.101 C 2175.847 458.639, 2182.683 462.952, 2183.380 462.685 C 2185.932 461.705, 2189.205 450.768, 2189.720 441.500 C 2190.298 431.095, 2188.270 423.436, 2182.601 414.613 C 2175.846 404.099, 2161.631 392.910, 2147.779 387.205 C 2139.244 383.689, 2124.091 383.034, 2116.205 385.839 M 696.012 427.117 C 684.801 428.523, 670.128 437.303, 661.948 447.500 C 654.090 457.296, 649.940 471.814, 651.926 482.557 C 652.514 485.737, 652.866 488.468, 652.708 488.625 C 652.551 488.783, 650.418 488.221, 647.969 487.377 C 631.844 481.822, 613.713 486.797, 598.756 500.880 C 589.393 509.697, 584.853 518.834, 584.196 530.179 L 583.726 538.297 578.113 532.065 L 572.500 525.833 564.705 532.530 C 560.417 536.213, 557.042 539.599, 557.205 540.054 C 557.367 540.510, 575.627 562.072, 597.783 587.971 L 638.065 635.059 646.033 628.287 C 650.415 624.563, 653.999 621.287, 653.997 621.008 C 653.995 620.728, 643.277 607.991, 630.180 592.703 C 617.082 577.415, 604.950 562.565, 603.220 559.703 C 599.104 552.895, 596.616 543.132, 597.463 537.113 C 598.450 530.105, 602.430 522.829, 608.328 517.251 C 615.915 510.075, 620.943 507.762, 630.143 507.212 C 636.794 506.815, 638.509 507.086, 643.356 509.305 C 646.419 510.708, 650.552 513.125, 652.541 514.678 C 654.530 516.230, 666.759 529.875, 679.717 545 C 692.675 560.125, 704.072 573.345, 705.044 574.378 C 706.761 576.202, 707.022 576.075, 714.156 569.957 C 718.195 566.492, 721.619 563.172, 721.764 562.579 C 721.910 561.985, 711.654 549.405, 698.974 534.622 C 686.295 519.839, 674.541 505.740, 672.856 503.290 C 666.306 493.770, 664.271 481.429, 667.628 471.578 C 669.783 465.253, 679.467 454.897, 686.395 451.507 C 692.987 448.283, 700.280 447.388, 706.945 448.987 C 717.035 451.407, 721.932 455.891, 748.990 487.489 C 762.890 503.720, 774.688 517, 775.208 517 C 776.470 517, 790.885 504.694, 790.669 503.800 C 790.251 502.070, 739.912 444.188, 735 439.790 C 728.630 434.086, 717.484 428.373, 711 427.488 C 708.525 427.150, 705.600 426.746, 704.500 426.589 C 703.400 426.432, 699.581 426.670, 696.012 427.117 M 1415 428.050 C 1268.574 432.366, 1125.664 467.929, 995 532.567 C 910.678 574.280, 838.430 622.936, 766 686.790 C 747.163 703.397, 701.850 748.505, 685.427 767 C 590.084 874.367, 520.757 993.365, 476.566 1125.500 C 439.773 1235.516, 422.475 1348.079, 424.317 1465.500 C 424.925 1504.258, 425.735 1519.140, 429.081 1553 C 448.397 1748.474, 525.138 1936.094, 648.522 2089.500 C 673.505 2120.562, 692.675 2141.797, 723.940 2173.041 C 761.905 2210.982, 791.020 2236.505, 829.507 2265.584 C 939.428 2348.634, 1061.935 2407.677, 1193.500 2441.010 C 1280.539 2463.062, 1355.792 2472.369, 1447 2472.361 C 1510.009 2472.355, 1559.140 2468.355, 1617.500 2458.478 C 1804.729 2426.793, 1977.498 2344.501, 2121.500 2218.415 C 2141.518 2200.888, 2181.885 2161.341, 2200.011 2141.500 C 2254.466 2081.890, 2297.730 2022.253, 2338.934 1950 C 2348.514 1933.202, 2374.018 1882.197, 2382.437 1863 C 2455.313 1696.830, 2482.593 1518.539, 2462.918 1337 C 2441.642 1140.680, 2362.292 953.148, 2235.486 799.500 C 2096.307 630.858, 1906.300 510.739, 1695.500 458.131 C 1603.645 435.207, 1510.626 425.231, 1415 428.050 M 2228.142 470.063 C 2203.338 474.469, 2179.229 498.236, 2172.412 524.999 C 2170.220 533.606, 2170.943 548.023, 2174.005 556.776 C 2180.894 576.464, 2201.401 595.155, 2222 600.520 C 2231.513 602.998, 2246.186 602.153, 2255.474 598.594 C 2262.376 595.948, 2272.058 590.393, 2271.938 589.146 C 2271.904 588.791, 2264.942 582.515, 2256.467 575.201 L 2241.057 561.901 2236.494 563.451 C 2228.458 566.179, 2222.798 565.084, 2216.206 559.526 C 2208.293 552.853, 2206.840 541.979, 2212.356 530.704 C 2215.909 523.442, 2226.940 512.093, 2233.500 508.950 C 2243.830 504, 2255.658 506.994, 2261.672 516.080 C 2264.647 520.576, 2265.809 528.239, 2264.212 532.823 C 2263.193 535.744, 2263.358 535.930, 2278.648 549.139 C 2287.154 556.488, 2294.496 562.636, 2294.964 562.802 C 2296.415 563.318, 2301.964 547.406, 2303.046 539.624 C 2306.478 514.947, 2290.768 488.907, 2264.500 475.731 C 2253.749 470.338, 2239.284 468.083, 2228.142 470.063 M 1392 553.113 C 1071.556 572.660, 786.520 761.213, 642.497 1048.912 C 560.952 1211.806, 531.250 1395.606, 557.078 1577.500 C 591.147 1817.431, 721.640 2034.101, 918.113 2176.961 C 1003.768 2239.243, 1100.692 2286.356, 1201.992 2314.951 C 1361.681 2360.028, 1532.493 2359.893, 1692.405 2314.565 C 1809.429 2281.393, 1920.923 2223.181, 2014.892 2146.192 C 2062.600 2107.105, 2109.718 2059.432, 2148.510 2011 C 2307.943 1811.948, 2374.638 1555.518, 2332.913 1302 C 2292.765 1058.058, 2150.656 838.919, 1943.500 701.504 C 1809.615 612.693, 1659.957 562.809, 1498 553.008 C 1478.810 551.847, 1411.669 551.913, 1392 553.113 M 2324 578.526 C 2307.775 592.484, 2292.333 606.289, 2289.684 609.203 C 2287.035 612.116, 2282.985 618.291, 2280.684 622.925 L 2276.500 631.349 2276.500 642.925 C 2276.500 654.148, 2276.609 654.729, 2280.093 662.024 C 2285.985 674.361, 2297.637 685.439, 2309.043 689.548 C 2311.494 690.431, 2316.365 691.457, 2319.866 691.827 L 2326.231 692.500 2320.101 697.679 L 2313.971 702.858 2326.660 717.679 C 2333.639 725.831, 2339.457 732.650, 2339.591 732.833 C 2339.724 733.016, 2361.701 714.414, 2388.429 691.494 L 2437.025 649.823 2431.262 643.141 C 2428.093 639.466, 2422.353 632.756, 2418.508 628.230 C 2414.662 623.703, 2411.287 620.013, 2411.008 620.028 C 2410.728 620.043, 2397.942 630.837, 2382.593 644.014 C 2367.245 657.192, 2352.660 668.954, 2350.183 670.153 C 2343.583 673.348, 2335.613 673.136, 2329.586 669.603 C 2321.027 664.588, 2314.811 652.772, 2316.533 644.794 C 2318.459 635.871, 2320.591 633.632, 2355.750 603.594 C 2368.537 592.669, 2379 583.366, 2379 582.919 C 2379 582.177, 2354.199 552.905, 2353.712 553.073 C 2353.595 553.113, 2340.225 564.567, 2324 578.526 M 519.500 595.956 C 493.869 601.526, 472.543 624.671, 468.827 650.952 C 466.265 669.068, 473.480 687.410, 489.166 702.656 C 497.765 711.014, 505.715 716.336, 515.388 720.209 C 523.092 723.295, 524.153 723.457, 536.500 723.446 C 548.239 723.436, 550.158 723.175, 556.280 720.751 C 569.638 715.463, 581.531 705.350, 589.505 692.500 C 597.767 679.185, 600.569 664.973, 597.644 651.221 C 596.116 644.040, 591.226 632.833, 589.425 632.388 C 588.916 632.263, 585.410 635.737, 581.634 640.110 L 574.769 648.060 577.020 655.063 C 578.757 660.465, 579.146 663.454, 578.721 668.138 C 577.599 680.515, 567.646 694.315, 555.355 700.536 C 549.961 703.267, 548.665 703.500, 538.899 703.500 C 528.753 703.500, 528.002 703.349, 521.399 699.988 C 517.605 698.056, 514.500 695.928, 514.500 695.260 C 514.500 694.591, 528.788 677.612, 546.250 657.529 C 563.712 637.445, 578 620.403, 578 619.657 C 578 617.998, 568.518 609.663, 560.881 604.609 C 549.699 597.210, 531.368 593.376, 519.500 595.956 M 517.575 616.591 C 497.017 623.152, 483.931 645.491, 489.474 664.560 C 491.224 670.578, 494.339 676.498, 498.125 681 L 500.227 683.500 503.364 679.897 C 505.089 677.915, 516.596 664.689, 528.935 650.506 L 551.371 624.719 548.935 622.714 C 541.028 616.204, 527.228 613.510, 517.575 616.591 M 2426.500 704.646 C 2389.100 731.317, 2358.132 753.498, 2357.682 753.938 C 2356.806 754.792, 2378.606 786, 2380.079 786 C 2382.013 786, 2516.493 689.184, 2516.398 687.861 C 2516.320 686.775, 2498.131 660.280, 2495.093 656.826 C 2494.767 656.456, 2463.900 677.974, 2426.500 704.646 M 425.521 693.260 C 422.277 697.792, 419.627 702.175, 419.632 703 C 419.636 703.825, 432.453 723.850, 448.113 747.500 C 463.773 771.150, 476.918 791.042, 477.324 791.705 C 477.871 792.598, 476.823 792.553, 473.281 791.530 C 470.652 790.771, 447.174 784.654, 421.109 777.937 L 373.717 765.723 371.891 768.112 C 364.536 777.730, 360.012 785.060, 361.191 785.449 C 361.911 785.686, 391.075 792.700, 426 801.034 C 460.925 809.369, 489.765 816.483, 490.088 816.844 C 490.412 817.205, 498.216 829.538, 507.431 844.252 C 516.646 858.965, 524.572 870.764, 525.045 870.472 C 527.009 869.258, 537.149 853.832, 536.717 852.715 C 536.147 851.239, 433.143 686.807, 432.133 685.760 C 431.741 685.352, 428.765 688.727, 425.521 693.260 M 2473.364 759.493 C 2452.391 764.055, 2429.714 780.541, 2420.709 797.772 C 2415.691 807.373, 2414 814.004, 2414 824.076 C 2414 847.227, 2428.020 866.963, 2449.023 873.377 L 2455.976 875.500 2449.029 879.413 C 2445.209 881.564, 2442.215 883.589, 2442.378 883.913 C 2446.124 891.382, 2461.517 917, 2462.259 917 C 2463.782 917, 2571.906 854.630, 2571.956 853.723 C 2572.004 852.877, 2555.999 824.711, 2553.689 821.575 C 2552.307 819.699, 2552.149 819.722, 2547.386 822.491 C 2544.699 824.053, 2541.527 825.958, 2540.337 826.724 L 2538.174 828.116 2540.087 821.969 C 2548.015 796.496, 2528.904 766.141, 2500.760 759.506 C 2493.127 757.706, 2481.607 757.701, 2473.364 759.493 M 2475.826 801.381 C 2464.757 805.934, 2457.144 813.409, 2454.497 822.323 C 2452.605 828.692, 2452.617 831.348, 2454.567 837.913 C 2456.498 844.415, 2462.736 851.514, 2469 854.339 C 2475.988 857.489, 2485.108 857.074, 2493.321 853.231 C 2500.948 849.662, 2508.272 843.277, 2511.317 837.545 C 2514.150 832.212, 2514.374 819.164, 2511.717 814.263 C 2504.349 800.673, 2490.038 795.536, 2475.826 801.381 M 353.112 833.581 C 339.570 837.222, 324.915 849.067, 317.536 862.333 C 298.414 896.709, 309.719 932.156, 345.588 950.296 C 372.519 963.916, 399.856 960.447, 419.175 940.959 C 438.611 921.352, 444.321 892.385, 433.114 870.240 C 430.230 864.541, 422.460 854, 421.143 854 C 420.765 854, 418.132 858.673, 415.291 864.385 L 410.126 874.770 412.482 876.983 C 419.016 883.121, 421.496 896.718, 418.113 907.855 C 412.508 926.306, 397.917 938, 380.500 938 C 375.543 938, 364.553 935.782, 363.193 934.507 C 363.024 934.349, 372.833 914.329, 384.990 890.019 C 401.958 856.090, 406.838 845.509, 405.988 844.486 C 404.009 842.101, 388.668 835.107, 382 833.549 C 373.896 831.655, 360.217 831.670, 353.112 833.581 M 354.247 854.031 C 349.472 855.591, 346.504 857.468, 341.693 861.968 C 323.025 879.431, 322.345 903.994, 340.075 920.409 C 343.396 923.484, 346.429 926, 346.814 926 C 347.405 926, 382 857.757, 382 856.590 C 382 855.567, 371.887 852.865, 366.500 852.450 C 362.150 852.114, 358.780 852.549, 354.247 854.031 M 2532 916.489 C 2500.925 930.468, 2475.130 942.050, 2474.678 942.227 C 2474.226 942.403, 2477.531 950.709, 2482.021 960.683 L 2490.186 978.818 2500.843 974.049 C 2533.698 959.346, 2547.864 953.144, 2550.899 952.133 C 2555.496 950.601, 2563.357 950.704, 2567.282 952.347 C 2572.176 954.396, 2577.847 961.390, 2582.127 970.652 C 2584.248 975.244, 2586.272 979, 2586.625 979 C 2588.554 979, 2624 962.440, 2624 961.539 C 2624 960.054, 2619.365 953.193, 2615.613 949.125 C 2611.072 944.202, 2603.104 939.349, 2595.422 936.827 C 2589.220 934.791, 2588.880 934.536, 2591.095 933.587 C 2592.418 933.021, 2596.513 931.181, 2600.196 929.499 L 2606.893 926.440 2599.074 908.970 C 2594.774 899.362, 2590.635 891.404, 2589.878 891.286 C 2589.120 891.168, 2563.075 902.510, 2532 916.489 M 227.182 955.311 C 225.528 959.883, 224.023 964.435, 223.837 965.427 C 223.551 966.958, 228.100 968.844, 253.798 977.855 C 278.745 986.602, 283.690 988.637, 281.798 989.378 C 267.796 994.861, 256.579 1004.813, 250.668 1017 C 245.884 1026.864, 244 1034.632, 244 1044.500 C 244 1067.249, 256.406 1086.515, 278 1097.301 C 291.916 1104.251, 301.409 1106.343, 316.423 1105.765 C 330.106 1105.239, 336.104 1103.457, 346.750 1096.755 C 371.532 1081.154, 380.765 1043.888, 365.546 1020.891 C 364.146 1018.774, 363 1016.815, 363 1016.536 C 363 1016.257, 367.371 1017.591, 372.714 1019.501 C 378.056 1021.410, 382.723 1022.641, 383.084 1022.236 C 383.829 1021.402, 390.107 1002.744, 389.739 1002.460 C 389.241 1002.075, 231.429 947, 230.824 947 C 230.475 947, 228.836 950.740, 227.182 955.311 M 295 1000.360 C 277.803 1005.042, 265.493 1020.042, 264.276 1037.801 C 262.912 1057.708, 274.395 1073.667, 295.395 1081.048 C 318.853 1089.292, 341.280 1081.481, 350.960 1061.695 C 358.831 1045.606, 355.670 1026.660, 343.040 1014.228 C 331.137 1002.512, 309.762 996.341, 295 1000.360 M 1010 1004.623 C 930.575 1010.341, 855.822 1038.239, 801.463 1082.449 C 792.320 1089.886, 773.584 1108.445, 765.069 1118.500 C 726.636 1163.885, 699.244 1221.901, 688.109 1281.500 C 681.095 1319.038, 680.177 1363.880, 685.558 1406 C 693.604 1468.974, 714.165 1529.161, 742.463 1572.574 L 747.955 1581 844.957 1581 L 941.959 1581 944.103 1576.798 C 945.282 1574.487, 947.040 1570.325, 948.011 1567.548 C 948.981 1564.772, 954.366 1551.700, 959.977 1538.500 C 968.585 1518.252, 1033.613 1362.638, 1044.597 1336 C 1051.940 1318.194, 1058.806 1311.849, 1070.852 1311.735 C 1078.204 1311.666, 1086.733 1315.472, 1090.606 1320.550 C 1095.468 1326.924, 1099.674 1344.002, 1115.471 1421.500 C 1120.179 1444.600, 1127.614 1479.700, 1131.992 1499.500 C 1136.370 1519.300, 1143.142 1551.700, 1147.040 1571.500 C 1154.876 1611.295, 1162.271 1645.606, 1169.887 1677.500 C 1172.645 1689.050, 1175.630 1702.550, 1176.520 1707.500 C 1179.524 1724.214, 1182.102 1734, 1183.501 1734 C 1185.457 1734, 1187.152 1728.938, 1212.128 1648.500 C 1217.080 1632.550, 1229.404 1593.850, 1239.514 1562.500 C 1249.624 1531.150, 1261.322 1494.250, 1265.510 1480.500 C 1274.550 1450.823, 1276.490 1445.651, 1280.140 1441.493 C 1282.982 1438.256, 1290.534 1434.200, 1291.647 1435.313 C 1291.991 1435.658, 1292.501 1460.908, 1292.781 1491.426 C 1293.163 1533.241, 1292.979 1548.833, 1292.033 1554.706 C 1290.278 1565.602, 1284.472 1585.740, 1273.497 1619 C 1268.325 1634.675, 1250.794 1689.575, 1234.539 1741 C 1218.284 1792.425, 1203.863 1837.434, 1202.494 1841.020 C 1197.790 1853.336, 1190.788 1859.005, 1180.290 1858.994 C 1172.518 1858.987, 1167.637 1857.498, 1163.513 1853.877 C 1156.114 1847.381, 1155.341 1844.404, 1132.117 1733 C 1119.054 1670.340, 1115.133 1652.385, 1106.109 1613.911 C 1097.119 1575.576, 1072.497 1460.019, 1068.007 1435.086 C 1066.738 1428.038, 1064.231 1421, 1062.989 1421 C 1062.553 1421, 1061.731 1422.237, 1061.163 1423.750 C 1060.596 1425.263, 1058.061 1431.426, 1055.530 1437.447 C 1053 1443.468, 1050.427 1450.443, 1049.813 1452.947 C 1049.200 1455.451, 1042.520 1471.450, 1034.970 1488.500 C 1027.420 1505.550, 1012.811 1539.750, 1002.505 1564.500 C 981.386 1615.219, 979.518 1619.218, 974.837 1623.707 C 968.020 1630.246, 971.965 1630, 873.874 1630 C 791.866 1630, 785 1630.128, 785 1631.654 C 785 1636.794, 805.508 1663.673, 837.628 1700.630 C 889.203 1759.974, 965.411 1830.812, 1044.500 1892.926 C 1058.800 1904.157, 1072.975 1915.597, 1076 1918.349 C 1082.969 1924.691, 1113.819 1947.735, 1138.500 1965.037 C 1197.079 2006.101, 1293.770 2069, 1298.318 2069 C 1298.851 2069, 1299.124 1969.707, 1298.985 1825.750 C 1298.706 1535.248, 1298.602 1552.889, 1300.576 1555.500 C 1301.408 1556.600, 1302.775 1559.975, 1303.614 1563 C 1304.454 1566.025, 1311.687 1591, 1319.688 1618.500 C 1327.689 1646, 1336.004 1674.800, 1338.166 1682.500 C 1347.772 1716.711, 1349.549 1720.363, 1359 1725.300 C 1363.780 1727.797, 1365.367 1728.126, 1371.119 1727.811 C 1380.564 1727.295, 1385.986 1723.774, 1392.500 1713.925 C 1398.605 1704.695, 1413.166 1679.176, 1434.680 1640 L 1450.880 1610.500 1736.690 1610.212 C 1893.886 1610.053, 2024.300 1610.187, 2026.500 1610.509 C 2030.226 1611.055, 2030.808 1611.614, 2035 1618.661 C 2041.101 1628.919, 2053.273 1640.416, 2063.110 1645.213 C 2074.284 1650.661, 2081.777 1652.373, 2094.500 1652.387 C 2113.517 1652.407, 2128.872 1646.140, 2142.138 1632.943 C 2155.537 1619.614, 2161.751 1602.645, 2160.755 1582.097 C 2159.381 1553.720, 2143.244 1531.657, 2116.608 1521.737 C 2109.928 1519.249, 2106.535 1518.632, 2097.348 1518.236 C 2083.967 1517.660, 2074.690 1519.409, 2064.838 1524.366 C 2051.980 1530.835, 2042.947 1539.408, 2034.425 1553.231 L 2030.015 1560.384 1731.257 1560.442 L 1432.500 1560.500 1427.708 1562.859 C 1419.731 1566.787, 1413.541 1575.619, 1395.018 1609.500 C 1384.674 1628.421, 1379.431 1637, 1378.212 1637 C 1376.781 1637, 1373.127 1628.331, 1370.955 1619.786 C 1369.797 1615.229, 1366.654 1604.300, 1363.971 1595.500 C 1361.287 1586.700, 1350.742 1550.282, 1340.537 1514.572 C 1329.094 1474.531, 1321.014 1447.992, 1319.456 1445.335 C 1316.412 1440.141, 1311.313 1436.470, 1304.272 1434.405 L 1299.044 1432.871 1298.772 1284.686 L 1298.500 1136.500 1296.085 1131.633 C 1294.724 1128.891, 1288.100 1120.813, 1280.908 1113.128 C 1224.071 1052.383, 1156.130 1016.849, 1076.928 1006.445 C 1065.900 1004.996, 1021.578 1003.789, 1010 1004.623 M 2612.243 1070.451 C 2570.851 1082.128, 2536.697 1091.969, 2536.345 1092.321 C 2535.752 1092.914, 2539.570 1109.082, 2540.906 1111.636 C 2541.313 1112.415, 2552.015 1109.826, 2575 1103.389 C 2593.425 1098.229, 2608.919 1094.145, 2609.430 1094.314 C 2609.942 1094.482, 2613.604 1106.205, 2617.567 1120.363 C 2621.530 1134.522, 2625.030 1146.364, 2625.345 1146.679 C 2625.879 1147.212, 2640.768 1143.565, 2641.648 1142.686 C 2641.867 1142.466, 2638.703 1130.410, 2634.616 1115.893 C 2630.530 1101.377, 2627.482 1089.227, 2627.843 1088.894 C 2628.204 1088.561, 2639.456 1085.230, 2652.847 1081.492 C 2669.583 1076.821, 2677.409 1075.043, 2677.880 1075.807 C 2678.258 1076.417, 2682.585 1091.347, 2687.496 1108.984 C 2692.655 1127.514, 2696.862 1140.887, 2697.462 1140.663 C 2698.033 1140.449, 2701.762 1139.438, 2705.750 1138.416 C 2709.738 1137.393, 2713 1136.123, 2713 1135.592 C 2713 1134.713, 2695.576 1071.803, 2690.887 1055.750 C 2689.803 1052.037, 2688.597 1049.050, 2688.208 1049.111 C 2687.818 1049.171, 2653.634 1058.775, 2612.243 1070.451 M 256.689 1149 C 212.794 1154.383, 176.574 1159.092, 176.202 1159.464 C 175.830 1159.836, 174.355 1165.241, 172.924 1171.474 L 170.322 1182.806 240.737 1228.494 C 279.465 1253.623, 311.403 1273.931, 311.710 1273.623 C 312.912 1272.422, 317.027 1252.633, 316.190 1252.083 C 315.701 1251.763, 308.710 1247.225, 300.653 1242 C 292.596 1236.775, 286.003 1231.972, 286.002 1231.326 C 285.999 1229.858, 300.736 1165.929, 301.177 1165.494 C 301.355 1165.319, 309.600 1164.202, 319.500 1163.011 C 329.400 1161.821, 337.759 1160.543, 338.074 1160.173 C 338.390 1159.803, 339.445 1155.900, 340.419 1151.500 C 341.392 1147.100, 342.420 1142.487, 342.703 1141.250 C 343.160 1139.247, 342.848 1139.012, 339.858 1139.106 C 338.011 1139.165, 300.585 1143.617, 256.689 1149 M 241.925 1172.054 C 220.158 1174.619, 201.831 1176.893, 201.197 1177.108 C 200.563 1177.324, 215.649 1187.497, 234.723 1199.716 C 253.796 1211.934, 269.502 1221.831, 269.625 1221.708 C 270.122 1221.212, 282.027 1168.595, 281.774 1168.017 C 281.623 1167.673, 263.691 1169.490, 241.925 1172.054 M 2625.075 1184.087 C 2591.833 1190.609, 2570.319 1216.690, 2572.354 1248 C 2574.200 1276.400, 2590.569 1299.043, 2615.050 1307.060 C 2621.493 1309.170, 2624.324 1309.495, 2636 1309.461 C 2648.476 1309.424, 2650.183 1309.184, 2658.500 1306.298 C 2671.028 1301.951, 2676.396 1298.715, 2684.612 1290.560 C 2697.372 1277.894, 2702.545 1263.986, 2701.746 1244.500 C 2701.181 1230.734, 2697.764 1219.805, 2690.743 1209.308 C 2682.403 1196.838, 2670.195 1188.240, 2655.540 1184.515 C 2649.063 1182.869, 2632.474 1182.636, 2625.075 1184.087 M 2634 1204.961 C 2619.967 1206.841, 2609.593 1211.565, 2602.100 1219.488 C 2595.992 1225.946, 2593.434 1230.914, 2591.884 1239.326 C 2590.341 1247.698, 2591.907 1257.493, 2596.142 1265.968 C 2600.022 1273.734, 2609.038 1282.101, 2616.715 1285.061 C 2628.512 1289.610, 2646.839 1288.523, 2659.801 1282.506 C 2667.420 1278.969, 2676.143 1270.261, 2679.631 1262.712 C 2682.239 1257.064, 2682.500 1255.501, 2682.500 1245.500 C 2682.500 1235.225, 2682.292 1234.060, 2679.335 1227.820 C 2671.130 1210.500, 2654.656 1202.193, 2634 1204.961 M 2687 1342.705 C 2651.445 1343.792, 2629.937 1345.059, 2625.339 1346.337 C 2611.184 1350.273, 2600.685 1358.303, 2594.759 1369.725 C 2590.318 1378.285, 2588.795 1384.831, 2588.819 1395.251 C 2588.855 1410.322, 2592.778 1420.761, 2601.953 1430.195 C 2608.275 1436.696, 2608.117 1437, 2598.418 1437 L 2592 1437 2592 1447.500 L 2592 1458 2598.750 1458.023 C 2616.160 1458.084, 2716.601 1454.632, 2717.364 1453.947 C 2717.839 1453.521, 2717.902 1448.612, 2717.503 1443.039 L 2716.778 1432.906 2699.139 1433.637 C 2689.437 1434.038, 2670.700 1434.397, 2657.500 1434.434 C 2634.427 1434.497, 2633.270 1434.408, 2627.559 1432.107 C 2614.675 1426.916, 2607.813 1415.781, 2607.774 1400 C 2607.732 1383.153, 2615.069 1372.630, 2630.219 1367.812 C 2635.657 1366.082, 2641.734 1365.631, 2675.500 1364.452 C 2696.950 1363.703, 2714.613 1363.070, 2714.750 1363.045 C 2715.279 1362.949, 2714.968 1348.092, 2714.375 1345.125 L 2713.750 1342 2705.125 1342.208 C 2700.381 1342.322, 2692.225 1342.546, 2687 1342.705 M 178 1366.369 L 178 1376.738 181.750 1377.358 C 183.813 1377.699, 188.650 1377.985, 192.500 1377.993 L 199.500 1378.007 196.500 1379.859 C 191.221 1383.117, 182.995 1392.786, 179.930 1399.336 C 175.526 1408.746, 173.683 1418.740, 174.396 1429.335 C 176.186 1455.934, 192.709 1475.242, 220.066 1482.702 C 228.088 1484.889, 248.928 1485.130, 257 1483.128 C 272.053 1479.396, 287.407 1468.833, 295.019 1456.971 C 308.910 1435.323, 305.788 1403.548, 288.113 1386.689 L 282.148 1381 292.489 1381 L 302.829 1381 303.503 1373.750 C 303.873 1369.763, 304.024 1364.925, 303.838 1363 L 303.500 1359.500 252.500 1357.833 C 224.450 1356.916, 196.213 1356.128, 189.750 1356.083 L 178 1356 178 1366.369 M 229 1380.035 C 217.311 1382.111, 207.118 1388.196, 200.986 1396.760 C 195.281 1404.726, 193.499 1410.742, 193.507 1422 C 193.514 1430.575, 193.822 1432.150, 196.672 1438.180 C 200.675 1446.649, 206.399 1452.868, 213.841 1456.835 C 228.311 1464.547, 246.806 1465.023, 261.675 1458.065 C 270.458 1453.955, 276.325 1448.145, 280.765 1439.160 C 284.349 1431.909, 284.498 1431.198, 284.443 1421.552 C 284.369 1408.618, 282.064 1402.343, 274.310 1393.968 C 263.515 1382.309, 246.191 1376.981, 229 1380.035 M 2591.603 1497.250 C 2591.317 1499.588, 2590.819 1504.288, 2590.498 1507.697 L 2589.913 1513.893 2593.206 1514.423 C 2595.018 1514.714, 2611.125 1516.098, 2629 1517.499 C 2646.875 1518.900, 2663.975 1520.534, 2667 1521.130 C 2678.976 1523.491, 2688.382 1530.144, 2693.047 1539.551 C 2695.184 1543.862, 2695.499 1545.854, 2695.491 1555 C 2695.483 1564.190, 2695.160 1566.186, 2692.901 1571 C 2689.458 1578.335, 2686.165 1582.048, 2680.242 1585.272 C 2670.718 1590.456, 2665.773 1590.617, 2623.500 1587.120 C 2602.600 1585.391, 2585.211 1583.982, 2584.858 1583.989 C 2584.065 1584.003, 2582.571 1603.904, 2583.307 1604.641 C 2584.202 1605.536, 2651.854 1610.941, 2662.540 1610.972 C 2668.423 1610.988, 2675.014 1610.366, 2678.458 1609.469 C 2700.730 1603.668, 2714.127 1585.158, 2714.262 1560 C 2714.333 1546.687, 2710.503 1535.755, 2702.862 1527.466 L 2698.866 1523.131 2704.683 1523.615 C 2707.882 1523.882, 2711.503 1524.238, 2712.728 1524.407 C 2714.113 1524.598, 2715.122 1524.106, 2715.395 1523.107 C 2716.334 1519.667, 2717.105 1503, 2716.325 1502.997 C 2715.871 1502.995, 2688.374 1500.745, 2655.221 1497.997 C 2622.068 1495.249, 2594.308 1493, 2593.532 1493 C 2592.622 1493, 2591.938 1494.506, 2591.603 1497.250 M 216 1518.558 C 176.125 1520.919, 141.319 1522.885, 138.654 1522.926 L 133.808 1523 134.522 1533.750 C 134.916 1539.662, 135.297 1544.564, 135.369 1544.643 C 135.477 1544.761, 302.961 1535.222, 303.750 1535.054 C 304.257 1534.945, 303.980 1523.131, 303.364 1518.640 L 302.728 1514 295.614 1514.133 C 291.701 1514.206, 255.875 1516.197, 216 1518.558 M 239 1571.440 C 215.469 1576.399, 198.572 1590.452, 191.290 1611.119 C 187.794 1621.041, 187.021 1636.408, 189.452 1647.644 C 194.767 1672.214, 212.261 1690.362, 235.643 1695.564 C 245.806 1697.825, 262.564 1697.113, 272.500 1693.997 C 290.334 1688.406, 304.641 1676.937, 311.274 1662.916 C 316.061 1652.796, 317.474 1646.261, 317.419 1634.500 C 317.285 1605.696, 301.129 1582.173, 275.462 1573.410 C 265.798 1570.111, 249.488 1569.229, 239 1571.440 M 240.725 1593.566 C 226.818 1596.935, 216.027 1605.108, 210.442 1616.500 C 207.702 1622.088, 207.500 1623.294, 207.500 1634.052 C 207.500 1645.382, 207.572 1645.749, 211.245 1653.181 C 215.685 1662.165, 220.652 1667.003, 229.877 1671.330 C 235.525 1673.980, 237.927 1674.495, 246.189 1674.833 C 279.910 1676.208, 302.378 1655.782, 298.023 1627.710 C 295.332 1610.369, 283.173 1596.813, 266.958 1593.076 C 260.764 1591.649, 247.625 1591.894, 240.725 1593.566 M 2611.042 1644.463 C 2588.443 1648.754, 2570.382 1666.179, 2564.878 1689 C 2560.926 1705.386, 2565.455 1725.145, 2575.677 1736.113 L 2578.112 1738.726 2567.503 1736.249 C 2561.668 1734.887, 2556.704 1733.963, 2556.471 1734.195 C 2556.239 1734.428, 2554.971 1739.179, 2553.653 1744.754 L 2551.258 1754.890 2555.879 1755.896 C 2558.421 1756.450, 2595.331 1765.257, 2637.901 1775.467 C 2680.472 1785.677, 2715.498 1793.835, 2715.737 1793.596 C 2716.506 1792.827, 2721.114 1773.781, 2720.645 1773.312 C 2720.396 1773.063, 2706.986 1769.711, 2690.846 1765.864 C 2674.706 1762.016, 2660.827 1758.645, 2660.004 1758.371 C 2659.054 1758.056, 2660.604 1756.749, 2664.246 1754.795 C 2685.051 1743.631, 2696.994 1716.050, 2691.573 1691.684 C 2689.025 1680.229, 2684.803 1672.658, 2676.076 1663.888 C 2663.840 1651.594, 2647.087 1644.579, 2627.449 1643.527 C 2621.885 1643.229, 2615.679 1643.583, 2611.042 1644.463 M 2612.231 1666.596 C 2599.539 1669.735, 2587.958 1680.396, 2584.092 1692.500 C 2581.360 1701.057, 2580.901 1705.694, 2582.069 1712.950 C 2584.219 1726.299, 2592.548 1737.209, 2605.424 1743.545 C 2621.400 1751.405, 2637.508 1751.885, 2651 1744.903 C 2661.062 1739.697, 2667.858 1731.571, 2671.112 1720.857 C 2678.260 1697.324, 2665.227 1674.985, 2640.032 1667.584 C 2631.874 1665.188, 2619.678 1664.755, 2612.231 1666.596 M 249.500 1732.250 C 204.400 1742.708, 167.425 1751.318, 167.333 1751.382 C 167.005 1751.615, 171.807 1771.140, 172.318 1771.652 C 172.865 1772.198, 334.297 1735.052, 336.031 1733.981 C 336.995 1733.385, 333.464 1715.273, 332.110 1713.867 C 331.774 1713.519, 294.600 1721.791, 249.500 1732.250 M 284 1784.897 C 251.825 1794.092, 225.546 1802.039, 225.602 1802.558 C 225.858 1804.909, 230.383 1820.587, 231.016 1821.312 C 231.670 1822.062, 349.720 1789.410, 351.129 1788.090 C 351.475 1787.765, 350.536 1783.225, 349.043 1778 C 346.881 1770.432, 345.940 1768.467, 344.415 1768.339 C 343.362 1768.251, 316.175 1775.702, 284 1784.897 M 2561.500 1799.870 C 2531.684 1808.452, 2513.700 1838.801, 2520.559 1868.959 C 2521.416 1872.729, 2523.634 1878.330, 2525.486 1881.407 C 2527.338 1884.483, 2528.549 1886.997, 2528.177 1886.993 C 2527.805 1886.989, 2523.282 1885.395, 2518.126 1883.450 C 2512.971 1881.505, 2508.657 1880.046, 2508.539 1880.207 C 2507.326 1881.873, 2501.405 1900.132, 2501.966 1900.479 C 2503.537 1901.450, 2617.278 1943, 2618.360 1942.998 C 2618.987 1942.997, 2621.025 1938.674, 2622.888 1933.392 C 2626.771 1922.385, 2627.289 1923.442, 2616.025 1919.411 C 2607.853 1916.487, 2605.373 1915, 2608.666 1915 C 2609.802 1915, 2614.008 1913.361, 2618.013 1911.357 C 2635.845 1902.436, 2648 1881.417, 2648 1859.500 C 2648 1830.647, 2626.769 1807.021, 2594.179 1799.609 C 2584.862 1797.490, 2569.337 1797.614, 2561.500 1799.870 M 188.411 1808.891 C 183.279 1812.021, 181 1815.711, 181.004 1820.885 C 181.011 1829.471, 186.611 1835, 195.302 1835 C 206.546 1835, 213.480 1822.500, 207.395 1813.202 C 203.561 1807.344, 194.370 1805.257, 188.411 1808.891 M 2565.500 1821.402 C 2554.265 1824.965, 2546.065 1831.983, 2541.078 1842.305 C 2530.654 1863.879, 2538.592 1886.673, 2560.535 1898.178 C 2581.666 1909.256, 2603.756 1906.543, 2617.652 1891.163 C 2624.443 1883.646, 2628.596 1870.648, 2627.684 1859.766 C 2626.194 1842.003, 2611.821 1826.835, 2591.448 1821.528 C 2584.437 1819.702, 2571.066 1819.637, 2565.500 1821.402 M 324.412 1835.916 C 284.750 1853.129, 279.472 1855.802, 272.424 1862.243 C 255.556 1877.660, 252.419 1898.912, 263.623 1921.858 C 270.420 1935.777, 284.257 1946.226, 297.994 1947.813 L 303.936 1948.500 300.484 1953.500 C 284.794 1976.226, 294.853 2012.783, 320.299 2025.513 C 324.132 2027.431, 328.221 2029.019, 329.384 2029.043 C 330.548 2029.067, 328.192 2030.499, 324.149 2032.225 C 320.106 2033.952, 316.597 2035.887, 316.351 2036.526 C 315.733 2038.139, 323.585 2055.550, 324.811 2055.282 C 326.434 2054.927, 437.431 2006.740, 438.260 2006.031 C 438.677 2005.673, 437.124 2001.052, 434.807 1995.762 L 430.594 1986.143 427.547 1987.434 C 425.871 1988.145, 410.994 1994.589, 394.486 2001.754 C 377.979 2008.920, 362.034 2015.506, 359.055 2016.391 C 350.743 2018.859, 339.629 2018.506, 333.329 2015.573 C 319.981 2009.358, 310.993 1991.653, 313.874 1977.250 C 315.870 1967.272, 322.960 1959.091, 334.820 1953.078 C 337.195 1951.874, 353.170 1944.802, 370.320 1937.364 C 387.469 1929.925, 401.837 1923.515, 402.250 1923.120 C 402.905 1922.491, 396.202 1905.869, 394.678 1904.345 C 394.361 1904.028, 378.933 1910.369, 360.394 1918.435 C 341.854 1926.502, 323.719 1933.798, 320.093 1934.649 C 302.997 1938.662, 288.845 1931.934, 281.435 1916.271 C 272.516 1897.418, 278.901 1880.563, 298.733 1870.610 C 301.611 1869.165, 318.019 1861.892, 335.194 1854.448 C 352.369 1847.003, 366.584 1840.749, 366.783 1840.550 C 367.162 1840.171, 360.117 1823.012, 359.089 1821.811 C 358.765 1821.432, 343.160 1827.779, 324.412 1835.916 M 2488.640 1946.632 C 2480.886 1949.014, 2475.197 1955.537, 2468.044 1970.248 C 2464.720 1977.086, 2462 1983.103, 2462 1983.621 C 2462 1984.407, 2476.049 1992, 2477.503 1992 C 2477.762 1992, 2480.242 1987.261, 2483.015 1981.468 C 2488.837 1969.308, 2491.790 1966.608, 2498.500 1967.308 C 2500.901 1967.558, 2516.528 1974.268, 2537.603 1984.097 L 2572.706 2000.470 2569.965 2006.485 C 2568.457 2009.793, 2565.381 2016.466, 2563.128 2021.314 L 2559.032 2030.129 2566.572 2033.564 C 2570.718 2035.454, 2574.446 2037, 2574.856 2037 C 2575.266 2037, 2578.437 2030.813, 2581.902 2023.250 C 2585.367 2015.688, 2588.494 2009.212, 2588.851 2008.861 C 2589.208 2008.509, 2595.011 2010.841, 2601.746 2014.042 C 2608.482 2017.243, 2614.826 2020.127, 2615.845 2020.451 C 2617.385 2020.940, 2618.397 2019.510, 2621.849 2011.977 C 2624.132 2006.992, 2625.996 2002.596, 2625.992 2002.207 C 2625.988 2001.818, 2619.734 1998.633, 2612.094 1995.129 L 2598.203 1988.759 2599.714 1985.129 C 2600.545 1983.133, 2602.093 1979.795, 2603.153 1977.711 L 2605.080 1973.923 2597.485 1970.461 C 2593.307 1968.558, 2589.524 1967, 2589.078 1967 C 2588.633 1967, 2586.863 1970.141, 2585.147 1973.981 L 2582.025 1980.961 2574.763 1977.627 C 2570.768 1975.793, 2554.848 1968.386, 2539.383 1961.168 C 2504.124 1944.710, 2499.350 1943.343, 2488.640 1946.632 M 2443.332 2015.023 L 2438.165 2023.965 2446.332 2028.857 C 2482.425 2050.473, 2546.259 2088.061, 2546.450 2087.810 C 2547.685 2086.196, 2556.987 2069.655, 2556.777 2069.447 C 2555.780 2068.460, 2449.896 2006.008, 2449.275 2006.040 C 2448.849 2006.062, 2446.175 2010.105, 2443.332 2015.023 M 408.414 2068.631 C 380.962 2087.128, 357.737 2102.790, 356.805 2103.437 C 355.275 2104.497, 355.668 2105.463, 360.805 2113.287 C 363.937 2118.058, 366.858 2121.970, 367.295 2121.981 C 367.732 2121.991, 371.332 2119.830, 375.295 2117.177 C 379.258 2114.524, 383.049 2112.031, 383.720 2111.636 C 384.547 2111.150, 384.413 2112.301, 383.303 2115.210 C 380.642 2122.181, 380.937 2137.781, 383.900 2146.828 C 389.627 2164.309, 403.852 2179.158, 420.543 2185.078 C 427.775 2187.643, 442.213 2188.649, 450.240 2187.146 C 463.193 2184.722, 478.303 2176.622, 489.117 2166.307 C 513.711 2142.848, 515.504 2106.991, 493.285 2082.924 C 483.041 2071.826, 469.470 2065, 457.654 2065 L 452.518 2065 461.009 2059.372 C 465.679 2056.276, 469.875 2053.404, 470.334 2052.988 C 471.164 2052.235, 460.319 2035, 459.014 2035 C 458.637 2035, 435.867 2050.134, 408.414 2068.631 M 2425.418 2072.420 C 2414.782 2074.844, 2405.409 2080.341, 2396.500 2089.382 C 2382.960 2103.122, 2377.042 2116.010, 2376.244 2133.500 C 2375.554 2148.605, 2379.179 2160.375, 2388.315 2172.690 C 2397.172 2184.629, 2413.913 2195.805, 2428.460 2199.490 C 2448.600 2204.592, 2471.350 2198.040, 2486.110 2182.887 C 2495.076 2173.682, 2502.570 2160.238, 2504.887 2149.201 C 2506.465 2141.688, 2506.266 2128.440, 2504.472 2121.552 C 2500.562 2106.542, 2487.400 2089.990, 2472.278 2081.067 C 2457.826 2072.539, 2439.629 2069.181, 2425.418 2072.420 M 440 2078.971 C 424.447 2081.798, 408.157 2093.805, 401.548 2107.312 C 391.798 2127.241, 400.579 2152.273, 420.813 2162.226 C 427.119 2165.328, 428.051 2165.500, 438.562 2165.500 C 449.589 2165.500, 449.707 2165.475, 458.078 2161.300 C 482.531 2149.107, 493.340 2126.706, 485.159 2105.176 C 478.271 2087.047, 458.544 2075.600, 440 2078.971 M 2574 2083.752 C 2569.167 2086.166, 2565.601 2093.338, 2566.587 2098.659 C 2568.239 2107.576, 2578.849 2113.200, 2586.728 2109.336 C 2592.511 2106.501, 2595.271 2101.655, 2594.756 2095.242 C 2593.911 2084.707, 2583.559 2078.976, 2574 2083.752 M 2425.286 2093.451 C 2414.667 2096.769, 2404.979 2105.598, 2399.687 2116.777 C 2396.772 2122.936, 2396.505 2124.339, 2396.503 2133.500 C 2396.500 2142.720, 2396.755 2144.038, 2399.766 2150.396 C 2404.415 2160.213, 2414.016 2169.424, 2425.562 2175.146 C 2434.337 2179.494, 2434.365 2179.500, 2445.425 2179.500 C 2455.576 2179.500, 2456.985 2179.262, 2462.308 2176.650 C 2478.595 2168.658, 2488.967 2149.419, 2485.965 2132.768 C 2484.352 2123.825, 2479.826 2116.021, 2471.931 2108.574 C 2457.358 2094.826, 2439.456 2089.022, 2425.286 2093.451 M 2329.594 2181.122 C 2325.967 2185.039, 2323 2188.576, 2323 2188.983 C 2323 2189.389, 2334.363 2200.078, 2348.250 2212.736 C 2378.306 2240.131, 2382.309 2244.292, 2385.820 2251.782 C 2389.683 2260.025, 2389.656 2271.147, 2385.752 2279.096 C 2382.408 2285.905, 2372.885 2295.265, 2366.279 2298.236 C 2359.120 2301.456, 2349.280 2301.234, 2341.570 2297.679 C 2334.224 2294.293, 2332.531 2292.904, 2303.156 2266.166 C 2290.065 2254.250, 2278.423 2243.687, 2277.286 2242.694 C 2275.258 2240.922, 2275.124 2240.989, 2270.196 2246.199 C 2267.433 2249.120, 2264.258 2252.674, 2263.139 2254.096 L 2261.104 2256.683 2289.887 2282.862 C 2321.796 2311.887, 2323.009 2312.889, 2331.383 2317.162 C 2351.633 2327.493, 2372.952 2322.864, 2389.800 2304.477 C 2399.565 2293.820, 2404.829 2280.202, 2403.627 2268.704 L 2403.018 2262.878 2409.136 2268.189 L 2415.253 2273.500 2422.125 2266 C 2425.905 2261.875, 2428.998 2258.201, 2428.999 2257.836 C 2429 2256.946, 2337.933 2174, 2336.954 2174 C 2336.532 2174, 2333.220 2177.205, 2329.594 2181.122 M 520.364 2187.424 C 492.126 2193.885, 465.333 2218.272, 456.192 2245.833 C 452.656 2256.494, 452.472 2273.824, 455.772 2285.285 C 458.555 2294.952, 464.293 2306.478, 470.565 2315 C 476.091 2322.509, 509.812 2361, 510.863 2361 C 512.160 2361, 630.101 2256.802, 629.798 2255.923 C 629.088 2253.860, 591.528 2211.974, 586.482 2207.617 C 577.823 2200.142, 565.058 2192.615, 555.915 2189.593 C 545.623 2186.191, 529.934 2185.234, 520.364 2187.424 M 527.289 2207.509 C 509.689 2211.333, 487.528 2229.146, 478.727 2246.543 C 474.103 2255.683, 472.703 2262.398, 473.222 2272.935 C 474.022 2289.176, 478.905 2298.586, 497.648 2320.010 L 509.803 2333.904 556.424 2292.896 L 603.045 2251.888 592.557 2240.064 C 573.275 2218.327, 562.666 2210.520, 548.257 2207.467 C 540.059 2205.729, 535.434 2205.739, 527.289 2207.509" stroke="none" fill="#5099a5" fill-rule="evenodd"/><path d="M 1392 553.113 C 1071.556 572.660, 786.520 761.213, 642.497 1048.912 C 560.952 1211.806, 531.250 1395.606, 557.078 1577.500 C 591.147 1817.431, 721.640 2034.101, 918.113 2176.961 C 1003.768 2239.243, 1100.692 2286.356, 1201.992 2314.951 C 1361.681 2360.028, 1532.493 2359.893, 1692.405 2314.565 C 1809.429 2281.393, 1920.923 2223.181, 2014.892 2146.192 C 2062.600 2107.105, 2109.718 2059.432, 2148.510 2011 C 2307.943 1811.948, 2374.638 1555.518, 2332.913 1302 C 2292.765 1058.058, 2150.656 838.919, 1943.500 701.504 C 1809.615 612.693, 1659.957 562.809, 1498 553.008 C 1478.810 551.847, 1411.669 551.913, 1392 553.113 M 1010 1004.623 C 930.575 1010.341, 855.822 1038.239, 801.463 1082.449 C 792.320 1089.886, 773.584 1108.445, 765.069 1118.500 C 726.636 1163.885, 699.244 1221.901, 688.109 1281.500 C 681.095 1319.038, 680.177 1363.880, 685.558 1406 C 693.604 1468.974, 714.165 1529.161, 742.463 1572.574 L 747.955 1581 844.957 1581 L 941.959 1581 944.103 1576.798 C 945.282 1574.487, 947.040 1570.325, 948.011 1567.548 C 948.981 1564.772, 954.366 1551.700, 959.977 1538.500 C 968.585 1518.252, 1033.613 1362.638, 1044.597 1336 C 1051.940 1318.194, 1058.806 1311.849, 1070.852 1311.735 C 1078.204 1311.666, 1086.733 1315.472, 1090.606 1320.550 C 1095.468 1326.924, 1099.674 1344.002, 1115.471 1421.500 C 1120.179 1444.600, 1127.614 1479.700, 1131.992 1499.500 C 1136.370 1519.300, 1143.142 1551.700, 1147.040 1571.500 C 1154.876 1611.295, 1162.271 1645.606, 1169.887 1677.500 C 1172.645 1689.050, 1175.630 1702.550, 1176.520 1707.500 C 1179.524 1724.214, 1182.102 1734, 1183.501 1734 C 1185.457 1734, 1187.152 1728.938, 1212.128 1648.500 C 1217.080 1632.550, 1229.404 1593.850, 1239.514 1562.500 C 1249.624 1531.150, 1261.322 1494.250, 1265.510 1480.500 C 1274.550 1450.823, 1276.490 1445.651, 1280.140 1441.493 C 1282.982 1438.256, 1290.534 1434.200, 1291.647 1435.313 C 1291.991 1435.658, 1292.501 1460.908, 1292.781 1491.426 C 1293.163 1533.241, 1292.979 1548.833, 1292.033 1554.706 C 1290.278 1565.602, 1284.472 1585.740, 1273.497 1619 C 1268.325 1634.675, 1250.794 1689.575, 1234.539 1741 C 1218.284 1792.425, 1203.863 1837.434, 1202.494 1841.020 C 1197.790 1853.336, 1190.788 1859.005, 1180.290 1858.994 C 1172.518 1858.987, 1167.637 1857.498, 1163.513 1853.877 C 1156.114 1847.381, 1155.341 1844.404, 1132.117 1733 C 1119.054 1670.340, 1115.133 1652.385, 1106.109 1613.911 C 1097.119 1575.576, 1072.497 1460.019, 1068.007 1435.086 C 1066.738 1428.038, 1064.231 1421, 1062.989 1421 C 1062.553 1421, 1061.731 1422.237, 1061.163 1423.750 C 1060.596 1425.263, 1058.061 1431.426, 1055.530 1437.447 C 1053 1443.468, 1050.427 1450.443, 1049.813 1452.947 C 1049.200 1455.451, 1042.520 1471.450, 1034.970 1488.500 C 1027.420 1505.550, 1012.811 1539.750, 1002.505 1564.500 C 981.386 1615.219, 979.518 1619.218, 974.837 1623.707 C 968.020 1630.246, 971.965 1630, 873.874 1630 C 791.866 1630, 785 1630.128, 785 1631.654 C 785 1636.794, 805.508 1663.673, 837.628 1700.630 C 889.203 1759.974, 965.411 1830.812, 1044.500 1892.926 C 1058.800 1904.157, 1072.975 1915.597, 1076 1918.349 C 1082.969 1924.691, 1113.819 1947.735, 1138.500 1965.037 C 1197.079 2006.101, 1293.770 2069, 1298.318 2069 C 1298.851 2069, 1299.124 1969.707, 1298.985 1825.750 C 1298.706 1535.248, 1298.602 1552.889, 1300.576 1555.500 C 1301.408 1556.600, 1302.775 1559.975, 1303.614 1563 C 1304.454 1566.025, 1311.687 1591, 1319.688 1618.500 C 1327.689 1646, 1336.004 1674.800, 1338.166 1682.500 C 1347.772 1716.711, 1349.549 1720.363, 1359 1725.300 C 1363.780 1727.797, 1365.367 1728.126, 1371.119 1727.811 C 1380.564 1727.295, 1385.986 1723.774, 1392.500 1713.925 C 1398.605 1704.695, 1413.166 1679.176, 1434.680 1640 L 1450.880 1610.500 1736.690 1610.212 C 1893.886 1610.053, 2024.300 1610.187, 2026.500 1610.509 C 2030.226 1611.055, 2030.808 1611.614, 2035 1618.661 C 2041.101 1628.919, 2053.273 1640.416, 2063.110 1645.213 C 2074.284 1650.661, 2081.777 1652.373, 2094.500 1652.387 C 2113.517 1652.407, 2128.872 1646.140, 2142.138 1632.943 C 2155.537 1619.614, 2161.751 1602.645, 2160.755 1582.097 C 2159.381 1553.720, 2143.244 1531.657, 2116.608 1521.737 C 2109.928 1519.249, 2106.535 1518.632, 2097.348 1518.236 C 2083.967 1517.660, 2074.690 1519.409, 2064.838 1524.366 C 2051.980 1530.835, 2042.947 1539.408, 2034.425 1553.231 L 2030.015 1560.384 1731.257 1560.442 L 1432.500 1560.500 1427.708 1562.859 C 1419.731 1566.787, 1413.541 1575.619, 1395.018 1609.500 C 1384.674 1628.421, 1379.431 1637, 1378.212 1637 C 1376.781 1637, 1373.127 1628.331, 1370.955 1619.786 C 1369.797 1615.229, 1366.654 1604.300, 1363.971 1595.500 C 1361.287 1586.700, 1350.742 1550.282, 1340.537 1514.572 C 1329.094 1474.531, 1321.014 1447.992, 1319.456 1445.335 C 1316.412 1440.141, 1311.313 1436.470, 1304.272 1434.405 L 1299.044 1432.871 1298.772 1284.686 L 1298.500 1136.500 1296.085 1131.633 C 1294.724 1128.891, 1288.100 1120.813, 1280.908 1113.128 C 1224.071 1052.383, 1156.130 1016.849, 1076.928 1006.445 C 1065.900 1004.996, 1021.578 1003.789, 1010 1004.623 M 652.985 2353.122 C 632.716 2355.869, 617.613 2374.660, 619.326 2395 C 620.343 2407.063, 625.749 2416.816, 635.524 2424.222 C 642.699 2429.659, 648.784 2431.502, 659.500 2431.487 C 667.529 2431.476, 669.231 2431.130, 675.275 2428.278 C 699.732 2416.739, 706.069 2385.219, 687.897 2365.504 C 678.837 2355.675, 666.482 2351.293, 652.985 2353.122 M 2215.413 2353.021 C 2206.660 2354.261, 2198.609 2358.594, 2192.074 2365.580 C 2182.705 2375.595, 2179.186 2388.371, 2182.372 2400.805 C 2185.714 2413.852, 2192.197 2422.011, 2203.763 2427.728 C 2210.990 2431.299, 2211.908 2431.500, 2221 2431.500 C 2230.092 2431.500, 2231.010 2431.299, 2238.237 2427.728 C 2257.304 2418.304, 2265.399 2397.504, 2257.850 2377.329 C 2253.770 2366.424, 2239.821 2354.953, 2228.826 2353.461 C 2226.447 2353.138, 2223.600 2352.745, 2222.500 2352.587 C 2221.400 2352.429, 2218.211 2352.624, 2215.413 2353.021 M 807.620 2416.250 C 798.751 2430.240, 731.149 2548.529, 731.725 2549.047 C 733.113 2550.296, 782.332 2578.643, 788.500 2581.747 C 805.110 2590.102, 826.211 2593.156, 842.422 2589.549 C 864.254 2584.692, 883.147 2568.740, 894.589 2545.500 C 911.179 2511.803, 902.958 2475.703, 873.338 2452.186 C 867.492 2447.545, 811.498 2414, 809.596 2414 C 809.293 2414, 808.404 2415.012, 807.620 2416.250 M 2021.342 2440.479 C 2012.373 2442.107, 2005.197 2444.442, 1997.500 2448.237 C 1988.070 2452.886, 1939.821 2481.378, 1939.345 2482.579 C 1938.865 2483.790, 2016.625 2616.500, 2017.816 2616.500 C 2019.888 2616.500, 2074.183 2583.689, 2080.957 2578.343 C 2091.014 2570.406, 2098.032 2561.741, 2103.508 2550.500 C 2114.048 2528.860, 2113.146 2505.087, 2100.913 2482.176 C 2083.916 2450.341, 2053.843 2434.582, 2021.342 2440.479 M 812.732 2484.287 C 805.710 2496.504, 795.723 2513.813, 790.539 2522.751 L 781.114 2539.002 790.332 2544.427 C 806.108 2553.711, 816.396 2556.576, 827.636 2554.813 C 839.583 2552.940, 851.293 2543.604, 858.172 2530.468 C 868.466 2510.809, 867.033 2494.374, 853.804 2480.386 C 849.217 2475.536, 828.747 2461.911, 826.238 2462.037 C 825.832 2462.058, 819.754 2472.070, 812.732 2484.287 M 2014.943 2477.299 C 2011.336 2478.604, 2003.879 2482.333, 1998.372 2485.586 L 1988.359 2491.500 2010.887 2529.750 C 2023.277 2550.787, 2033.774 2568, 2034.213 2568 C 2034.653 2568, 2039.351 2565.412, 2044.654 2562.250 C 2061.486 2552.212, 2068.556 2544.172, 2071.678 2531.520 C 2073.111 2525.716, 2073.184 2523.667, 2072.175 2517.607 C 2069.539 2501.768, 2057.552 2484.767, 2044.581 2478.472 C 2036.161 2474.386, 2024.289 2473.916, 2014.943 2477.299 M 1906.184 2496.718 C 1890.536 2502.697, 1888.918 2503.536, 1889.394 2505.418 C 1889.684 2506.563, 1897.124 2526.377, 1905.928 2549.449 C 1914.733 2572.521, 1921.808 2591.526, 1921.651 2591.683 C 1921.494 2591.840, 1900.765 2577.106, 1875.586 2558.942 L 1829.806 2525.916 1812.153 2532.608 C 1802.444 2536.289, 1794.361 2539.409, 1794.192 2539.541 C 1794.023 2539.674, 1805.886 2571.219, 1820.555 2609.641 C 1835.224 2648.064, 1847.669 2680.738, 1848.211 2682.250 C 1848.753 2683.762, 1849.681 2685, 1850.274 2685 C 1852.523 2685, 1884.261 2672.485, 1884.662 2671.439 C 1884.893 2670.837, 1877.697 2651.029, 1868.670 2627.422 C 1859.644 2603.815, 1852.382 2584.356, 1852.532 2584.180 C 1852.683 2584.005, 1872.987 2598.359, 1897.653 2616.079 C 1922.319 2633.800, 1943.176 2648.479, 1944.003 2648.701 C 1946.610 2649.400, 1979.516 2636.305, 1979.373 2634.626 C 1979.176 2632.325, 1924.745 2489.993, 1924.084 2490.050 C 1923.763 2490.078, 1915.708 2493.078, 1906.184 2496.718 M 934 2563.163 C 871.309 2632.741, 874.640 2628.973, 875.276 2629.609 C 875.563 2629.896, 883.894 2633.433, 893.789 2637.468 L 911.781 2644.805 919.560 2635.804 C 923.839 2630.853, 928.070 2625.900, 928.964 2624.797 C 930.564 2622.820, 930.977 2622.948, 957.044 2633.503 C 971.595 2639.395, 983.639 2644.344, 983.808 2644.500 C 983.978 2644.655, 983.675 2651.019, 983.135 2658.642 C 982.356 2669.637, 982.418 2672.707, 983.433 2673.500 C 985.732 2675.296, 1019.019 2688.314, 1019.665 2687.669 C 1020.159 2687.174, 1024.416 2585.727, 1026.173 2532.595 L 1026.500 2522.690 1006.031 2514.345 C 994.772 2509.755, 985.547 2506.001, 985.531 2506.002 C 985.514 2506.004, 962.325 2531.726, 934 2563.163 M 1760.575 2554.414 C 1750.716 2556.689, 1742.470 2559.089, 1742.251 2559.746 C 1742.032 2560.403, 1746.681 2581.767, 1752.582 2607.220 C 1763.976 2656.372, 1764.742 2661.745, 1761.493 2669.773 C 1757.906 2678.639, 1747.281 2684.425, 1734.500 2684.474 C 1728.675 2684.496, 1726.733 2684.049, 1722.930 2681.813 C 1718.330 2679.109, 1714.303 2674.131, 1712.086 2668.408 C 1711.427 2666.707, 1706.038 2644.319, 1700.111 2618.658 C 1694.183 2592.996, 1689.135 2571.802, 1688.893 2571.560 C 1688.651 2571.317, 1680.250 2572.990, 1670.226 2575.276 C 1657.376 2578.207, 1652 2579.841, 1652 2580.817 C 1652 2584.506, 1674.190 2677.668, 1676.332 2682.970 C 1688.075 2712.043, 1714.312 2725.793, 1746.162 2719.565 C 1762.536 2716.364, 1775.090 2710.075, 1785.061 2700.078 C 1793.220 2691.899, 1797.451 2684.552, 1800.150 2673.878 C 1803.762 2659.596, 1802.867 2652.635, 1790.587 2599.500 C 1784.740 2574.200, 1779.629 2552.775, 1779.228 2551.888 C 1778.580 2550.452, 1776.543 2550.728, 1760.575 2554.414 M 970.240 2577.046 C 960.197 2588.780, 952.322 2598.691, 952.740 2599.070 C 953.158 2599.450, 960.764 2602.691, 969.643 2606.273 L 985.785 2612.785 986.380 2605.643 C 987.553 2591.557, 989.214 2559.349, 988.860 2557.549 C 988.602 2556.232, 983.330 2561.753, 970.240 2577.046 M 1123.121 2563.059 C 1109.212 2565.547, 1097.067 2571.597, 1086.359 2581.372 C 1058.517 2606.789, 1050.844 2652.554, 1069.179 2683.835 C 1071.006 2686.951, 1076.325 2693.340, 1081 2698.034 C 1090.822 2707.895, 1101.608 2714.117, 1116.562 2718.549 C 1128.281 2722.022, 1145.107 2722.906, 1156 2720.620 C 1166.286 2718.461, 1180.055 2711.463, 1187.776 2704.469 C 1193.422 2699.356, 1203.800 2686.379, 1202.871 2685.596 C 1202.667 2685.424, 1193.500 2682.810, 1182.500 2679.786 L 1162.500 2674.288 1158.795 2677.601 C 1149.603 2685.819, 1137.298 2688.149, 1124.336 2684.125 C 1099.707 2676.479, 1091.039 2649.324, 1104.355 2621.529 C 1111.334 2606.962, 1122.172 2599.007, 1136.139 2598.198 C 1154.139 2597.156, 1170.110 2607.438, 1174.260 2622.740 C 1175.182 2626.139, 1176.013 2627.173, 1178.455 2627.951 C 1184.042 2629.732, 1214.403 2638, 1215.357 2638 C 1215.916 2638, 1216.058 2634.610, 1215.707 2629.643 C 1213.082 2592.446, 1180.672 2564.074, 1139 2562.494 C 1133.225 2562.275, 1126.079 2562.529, 1123.121 2563.059 M 1553.660 2592.048 C 1521.309 2597.477, 1496.504 2619.700, 1488.414 2650.500 C 1487.072 2655.609, 1486.582 2661.012, 1486.602 2670.500 C 1486.636 2686.443, 1488.271 2693.560, 1495.212 2707.975 C 1499.712 2717.321, 1501.294 2719.484, 1509.878 2728.032 C 1518.093 2736.213, 1520.889 2738.292, 1529 2742.255 C 1543.155 2749.171, 1548.896 2750.446, 1566 2750.467 C 1583.265 2750.489, 1591.218 2748.620, 1605.500 2741.185 C 1612.546 2737.517, 1616.482 2734.538, 1623.630 2727.460 C 1631.718 2719.451, 1633.331 2717.227, 1637.777 2707.960 C 1640.536 2702.207, 1643.329 2695.250, 1643.982 2692.500 C 1649 2671.390, 1645.492 2646.642, 1634.942 2628.720 C 1629.885 2620.129, 1616.883 2606.949, 1608.706 2602.123 C 1593.258 2593.007, 1571.583 2589.039, 1553.660 2592.048 M 1373.026 2602.104 C 1373.040 2603.972, 1371.852 2638.925, 1370.387 2679.778 C 1368.922 2720.632, 1367.999 2754.333, 1368.336 2754.669 C 1369.008 2755.342, 1405.203 2756.858, 1405.983 2756.247 C 1406.248 2756.038, 1406.980 2742.060, 1407.610 2725.184 C 1408.239 2708.308, 1408.809 2694.348, 1408.877 2694.163 C 1408.945 2693.978, 1419.503 2694.151, 1432.340 2694.548 L 1455.681 2695.269 1456.335 2685.385 C 1456.695 2679.948, 1456.992 2673.207, 1456.995 2670.406 L 1457 2665.311 1442.750 2664.659 C 1434.912 2664.301, 1424.268 2664.006, 1419.095 2664.004 L 1409.690 2664 1410.300 2648.378 C 1410.636 2639.786, 1411.158 2632.509, 1411.460 2632.206 C 1411.763 2631.904, 1425.845 2632.133, 1442.755 2632.716 C 1459.665 2633.299, 1473.645 2633.644, 1473.822 2633.483 C 1473.999 2633.322, 1474.403 2626.435, 1474.720 2618.179 L 1475.297 2603.167 1470.899 2602.629 C 1468.479 2602.333, 1450.975 2601.611, 1432 2601.024 C 1413.025 2600.437, 1391.987 2599.676, 1385.250 2599.333 L 1373 2598.708 1373.026 2602.104 M 1555 2627.750 C 1542.344 2631.184, 1533.091 2639.010, 1528.867 2649.853 C 1525.849 2657.599, 1525.134 2674.042, 1527.421 2683.068 C 1531.091 2697.551, 1538.220 2706.865, 1549.775 2712.279 C 1555.757 2715.082, 1557.494 2715.430, 1565.500 2715.430 C 1576.654 2715.431, 1583.714 2713.404, 1591.182 2708.056 C 1601.505 2700.664, 1607.012 2688.671, 1606.985 2673.645 C 1606.936 2646.300, 1592.007 2627.609, 1569.249 2626.399 C 1563.848 2626.111, 1559.531 2626.520, 1555 2627.750 M 1232.662 2662.618 C 1231.694 2671.208, 1231.074 2678.407, 1231.282 2678.616 C 1231.660 2678.993, 1324.112 2689.979, 1327.030 2689.993 C 1328.263 2689.999, 1328.898 2686.976, 1330.309 2674.363 C 1331.271 2665.762, 1331.933 2658.602, 1331.779 2658.451 C 1331.530 2658.207, 1236.979 2647, 1235.164 2647 C 1234.755 2647, 1233.629 2654.028, 1232.662 2662.618" stroke="none" fill="#eb3434" fill-rule="evenodd"/></svg>